<svg width="16" height="14" viewBox="0 0 16 14" fill="none" xmlns="http://www.w3.org/2000/svg">
<path d="M15.3508 7.22897L9.72578 12.854C9.54966 13.0301 9.31079 13.129 9.06172 13.129C8.81265 13.129 8.57378 13.0301 8.39766 12.854C8.22154 12.6779 8.12259 12.439 8.12259 12.1899C8.12259 11.9408 8.22154 11.702 8.39766 11.5258L12.4219 7.50319H0.9375C0.68886 7.50319 0.450403 7.40442 0.274587 7.2286C0.0987721 7.05279 0 6.81433 0 6.56569C0 6.31705 0.0987721 6.07859 0.274587 5.90278C0.450403 5.72696 0.68886 5.62819 0.9375 5.62819H12.4219L8.39922 1.60319C8.2231 1.42707 8.12415 1.1882 8.12415 0.939126C8.12415 0.690054 8.2231 0.451184 8.39922 0.275064C8.57534 0.0989432 8.81421 2.6244e-09 9.06328 0C9.31235 -2.6244e-09 9.55122 0.0989432 9.72734 0.275064L15.3523 5.90006C15.4398 5.98728 15.5091 6.0909 15.5563 6.20498C15.6036 6.31907 15.6278 6.44136 15.6277 6.56484C15.6275 6.68832 15.603 6.81056 15.5555 6.92453C15.508 7.0385 15.4384 7.14196 15.3508 7.22897Z" fill="white"/>
</svg>
