<svg width="15" height="17" viewBox="0 0 15 17" fill="none" xmlns="http://www.w3.org/2000/svg">
<path d="M13.632 7.11352L2.37578 0.228367C2.13972 0.0844594 1.86971 0.00576102 1.5933 0.000304436C1.31689 -0.00515215 1.04398 0.0628285 0.802422 0.197308C0.560867 0.331787 0.359319 0.527949 0.218348 0.765773C0.0773768 1.0036 0.0020307 1.27457 0 1.55102V15.3213C0.0020307 15.5978 0.0773768 15.8688 0.218348 16.1066C0.359319 16.3444 0.560867 16.5406 0.802422 16.6751C1.04398 16.8095 1.31689 16.8775 1.5933 16.8721C1.86971 16.8666 2.13972 16.7879 2.37578 16.644L13.632 9.75884C13.859 9.62067 14.0466 9.42643 14.1768 9.19478C14.307 8.96314 14.3753 8.7019 14.3753 8.43618C14.3753 8.17046 14.307 7.90922 14.1768 7.67758C14.0466 7.44593 13.859 7.25169 13.632 7.11352ZM1.875 14.7526V2.11977L12.2 8.43618L1.875 14.7526Z" fill="white"/>
</svg>
